<?xml version="1.0" standalone="no"?>
<!DOCTYPE svg PUBLIC "-//W3C//DTD SVG 20010904//EN"
 "http://www.w3.org/TR/2001/REC-SVG-20010904/DTD/svg10.dtd">
<svg version="1.0" xmlns="http://www.w3.org/2000/svg"
 width="260.000000pt" height="260.000000pt" viewBox="0 0 260.000000 260.000000"
 preserveAspectRatio="xMidYMid meet">
<metadata>
Created by potrace 1.14, written by Peter Selinger 2001-2017
</metadata>
<g transform="translate(0.000000,260.000000) scale(0.100000,-0.100000)"
fill="#000000" stroke="none">
<path d="M1904 2550 c-40 -17 -70 -24 -169 -36 -65 -8 -86 -11 -112 -18 -36
-8 -97 -39 -106 -53 -6 -10 -13 -10 -28 -3 -11 7 -19 7 -19 1 0 -5 -15 -13
-32 -17 -18 -3 -39 -14 -46 -23 -7 -9 -11 -10 -7 -3 4 7 0 12 -9 12 -9 0 -16
-5 -16 -12 0 -6 -3 -8 -7 -5 -3 4 -13 1 -21 -6 -13 -9 -14 -9 -8 1 10 17 1 15
-18 -4 -9 -8 -16 -11 -16 -6 0 13 -69 -21 -98 -48 -12 -11 -22 -18 -22 -16 0
3 -18 -11 -40 -32 -23 -20 -58 -53 -79 -73 -21 -19 -63 -55 -92 -79 -30 -25
-57 -49 -61 -55 -4 -5 -8 -7 -8 -4 0 8 -140 -128 -140 -136 0 -5 -70 -94 -104
-132 -27 -31 -36 -43 -36 -49 0 -4 -10 -15 -22 -25 -11 -11 -18 -19 -13 -19 4
0 -3 -9 -16 -20 -13 -10 -20 -19 -16 -20 4 0 -2 -11 -15 -24 -13 -14 -41 -50
-63 -80 -30 -41 -55 -63 -100 -86 -56 -28 -105 -79 -105 -108 0 -7 -4 -12 -9
-12 -6 0 -9 -8 -9 -17 1 -10 -3 -36 -7 -58 -4 -22 -9 -51 -10 -63 -1 -13 -8
-28 -16 -33 -8 -5 -10 -9 -5 -9 5 0 4 -6 -2 -12 -12 -16 -13 -28 -1 -49 5 -10
3 -23 -5 -35 -10 -12 -12 -34 -9 -64 9 -70 5 -104 -14 -117 -9 -7 -13 -13 -8
-13 4 0 0 -9 -10 -20 -10 -11 -15 -20 -11 -20 4 0 -1 -12 -11 -27 -10 -16 -25
-41 -33 -58 -8 -16 -19 -37 -26 -45 -13 -17 -38 -88 -38 -110 0 -8 -6 -21 -13
-28 -16 -16 -17 -29 -3 -37 6 -3 10 -2 10 3 0 9 68 45 110 57 14 5 40 19 58
33 17 13 32 21 32 17 0 -3 7 0 15 7 32 29 45 38 45 33 0 -4 13 3 29 14 15 11
31 18 34 14 4 -3 9 2 13 11 3 9 10 13 15 10 5 -3 9 -1 9 4 0 5 44 31 98 57 53
27 103 53 111 59 7 5 19 11 27 12 20 3 28 -15 10 -22 -9 -3 -16 -9 -16 -13 0
-13 -131 -255 -141 -262 -6 -3 -10 -10 -10 -15 1 -5 -6 -17 -14 -27 -8 -9 -15
-21 -15 -25 0 -4 -12 -18 -25 -31 -14 -12 -23 -27 -20 -31 3 -5 0 -12 -7 -17
-7 -4 -20 -17 -28 -27 -13 -18 -13 -19 0 -11 12 6 13 5 2 -6 -6 -7 -12 -21
-12 -31 0 -10 -5 -18 -11 -18 -5 0 -7 -4 -4 -10 3 -6 3 -16 -2 -23 -9 -14 -7
-9 -28 -102 -9 -38 -17 -78 -18 -87 -1 -10 -5 -18 -10 -18 -4 0 -6 -4 -3 -8 2
-4 -4 -27 -14 -50 -21 -46 -11 -55 23 -19 12 13 37 33 55 46 18 13 31 25 28
28 -2 3 3 13 12 22 30 31 52 61 46 61 -3 0 1 6 8 14 20 21 41 53 37 57 -3 4
20 35 48 64 7 7 9 15 6 19 -4 3 -1 6 5 6 7 0 12 5 12 10 0 11 10 24 43 61 9
10 16 20 15 22 -3 3 59 71 245 266 27 28 46 51 44 51 -3 0 9 15 26 33 18 19
39 44 47 57 49 75 91 86 83 22 -3 -20 -7 -39 -9 -41 -2 -2 1 -10 7 -18 8 -9 8
-13 0 -13 -12 0 -10 -27 3 -48 4 -7 3 -19 -4 -26 -8 -11 -8 -15 2 -19 10 -4
10 -6 1 -6 -17 -1 -17 -28 -1 -34 9 -4 9 -6 -1 -6 -11 -1 -10 -5 5 -17 10 -8
12 -12 4 -8 -13 7 -13 5 -2 -8 10 -13 10 -17 -4 -22 -12 -5 -13 -10 -5 -19 13
-17 4 -77 -22 -140 -9 -20 -14 -46 -12 -57 7 -37 29 -90 37 -90 4 0 8 -7 8
-15 0 -8 9 -20 20 -27 11 -7 20 -18 20 -24 0 -7 20 -21 44 -32 55 -26 156
-124 156 -152 0 -14 4 -19 12 -14 8 5 9 2 5 -9 -5 -15 1 -17 48 -17 52 0 55 1
55 25 0 14 5 25 11 25 5 0 8 3 6 7 -2 5 4 16 15 26 10 9 18 14 18 11 0 -9 84
40 103 60 9 10 17 15 17 11 0 -4 8 1 18 12 9 11 36 32 60 47 23 14 42 30 43
34 0 4 2 16 5 27 6 29 6 76 0 110 -21 116 -23 164 -6 196 8 14 7 19 -2 19 -10
0 -10 2 1 9 11 7 11 9 0 14 -9 4 -10 8 -4 14 19 15 28 111 13 130 -5 7 -6 18
-2 24 4 7 3 9 -2 6 -6 -3 -16 8 -23 24 -7 16 -17 27 -21 24 -5 -3 -7 4 -5 15
2 11 0 18 -4 16 -4 -3 -17 12 -27 34 -10 22 -22 40 -26 40 -5 0 -8 6 -8 14 0
8 -7 17 -16 20 -8 3 -12 10 -9 16 3 5 1 10 -4 10 -6 0 -11 7 -11 15 0 8 -4 15
-8 15 -4 0 -9 11 -10 25 -3 38 30 51 75 30 20 -10 47 -17 60 -17 12 0 23 -4
23 -9 0 -4 8 -6 18 -4 11 2 19 -3 19 -10 0 -8 -5 -11 -11 -8 -6 4 -5 -1 3 -10
7 -9 22 -17 32 -17 11 0 19 -4 19 -10 0 -5 9 -10 20 -10 11 0 28 -4 38 -9 26
-13 84 -32 107 -36 11 -1 21 -4 23 -5 6 -7 29 -5 46 3 10 5 16 5 13 0 -3 -5
15 -9 39 -10 25 -1 51 -6 57 -11 16 -13 89 -18 106 -7 9 5 12 4 7 -3 -3 -6 -2
-13 4 -17 5 -3 10 -2 10 3 0 10 50 23 88 22 13 0 20 5 17 10 -3 5 0 7 9 4 8
-3 28 7 47 25 17 17 27 31 22 31 -5 0 -10 13 -11 28 0 23 4 28 26 30 14 1 35
11 47 22 12 11 25 17 28 13 4 -3 7 1 7 11 0 9 4 15 8 12 9 -5 42 28 42 42 0
14 -41 43 -52 36 -6 -4 -8 -3 -4 4 3 6 -3 14 -16 18 -27 8 -49 29 -40 38 3 4
-1 4 -10 1 -8 -3 -22 1 -31 9 -9 9 -23 16 -31 16 -9 0 -16 5 -16 11 0 5 -4 8
-9 4 -5 -3 -13 4 -16 16 -4 11 -9 18 -12 15 -7 -6 -27 14 -35 35 -8 21 10 39
38 39 12 0 54 -13 93 -29 38 -16 73 -26 76 -22 4 3 5 0 3 -8 -2 -7 5 -15 15
-16 9 -2 17 1 17 6 0 5 -5 9 -11 9 -5 0 -8 4 -5 8 3 5 -4 14 -14 22 -10 8 -17
17 -14 22 3 4 -6 12 -19 17 -14 6 -28 15 -32 21 -3 5 -10 8 -14 6 -4 -3 -17 3
-28 14 -12 10 -24 16 -27 13 -3 -4 -6 -1 -6 6 0 7 -4 10 -9 7 -5 -4 -11 -1
-13 6 -2 6 -15 13 -29 15 -13 2 -25 8 -27 13 -4 12 -72 14 -72 3 0 -5 -13 -8
-29 -9 -16 -1 -39 -11 -52 -23 -23 -21 -45 -29 -35 -12 7 10 -9 8 -36 -4 -10
-4 -16 -10 -13 -15 2 -4 -8 -7 -23 -6 -15 1 -41 -4 -58 -11 -17 -7 -34 -10
-37 -7 -5 5 -63 -22 -77 -36 -3 -3 -16 -6 -30 -8 -13 -1 -36 -10 -50 -19 -14
-10 -33 -18 -42 -20 -33 -5 -139 -66 -177 -101 -9 -9 -25 -12 -44 -8 -16 3
-35 6 -41 6 -6 0 -4 5 4 10 13 8 13 10 -2 10 -11 0 -16 6 -13 19 2 11 -3 22
-11 25 -9 3 -12 11 -8 17 4 7 1 10 -7 7 -8 -3 -23 2 -33 11 -16 13 -18 13 -11
1 6 -12 5 -12 -5 -3 -10 9 -2 22 40 62 29 28 57 51 62 51 5 0 7 4 4 8 -3 5 6
15 19 22 14 7 25 16 25 20 0 11 83 95 92 93 4 -2 8 1 8 7 0 5 34 43 75 84 41
41 75 77 75 80 0 3 -9 4 -20 3 -11 -1 -20 -5 -20 -9 0 -4 -3 -7 -7 -6 -11 3
-73 -35 -73 -44 0 -4 -7 -8 -15 -8 -8 0 -15 -4 -15 -10 0 -5 -6 -10 -13 -10
-7 0 -24 -11 -39 -24 -14 -14 -29 -22 -32 -19 -3 4 -6 1 -6 -6 0 -7 -5 -9 -10
-6 -6 3 -13 -1 -16 -9 -3 -9 -10 -13 -15 -10 -5 3 -9 0 -9 -7 0 -7 -3 -9 -7
-6 -3 4 -12 2 -20 -4 -7 -6 -13 -8 -13 -5 0 4 -6 1 -14 -6 -8 -7 -12 -16 -9
-21 2 -4 1 -7 -4 -6 -16 4 -63 -13 -63 -23 0 -6 -9 -8 -20 -5 -11 3 -20 1 -20
-3 0 -7 -32 -22 -50 -23 -3 0 -11 -7 -18 -14 -8 -7 -18 -11 -23 -8 -5 4 -9 1
-9 -5 0 -6 -4 -8 -10 -5 -5 3 -10 1 -10 -5 0 -6 -4 -9 -9 -5 -6 3 -14 -3 -20
-12 -6 -10 -11 -13 -11 -6 0 7 -9 9 -22 5 -22 -5 -22 -4 -5 15 9 11 17 26 17
33 0 7 3 11 6 7 5 -5 92 118 105 149 2 5 23 38 46 74 23 36 42 69 42 73 0 5 9
17 21 27 12 10 20 21 18 24 -2 3 5 14 14 26 10 11 15 20 11 20 -4 0 2 7 13 15
10 8 15 15 11 15 -4 0 3 11 17 24 15 13 26 27 26 31 0 4 21 27 47 51 26 24 44
44 41 44 -3 0 17 25 46 55 93 99 114 124 108 129 -3 3 3 8 12 12 9 3 14 9 11
13 -2 4 11 24 29 43 18 19 35 40 37 45 6 16 61 83 107 130 23 24 42 45 42 47
0 13 -31 11 -66 -4z"/>
</g>
</svg>
